<svg xmlns="http://www.w3.org/2000/svg" viewBox="0 0 960 600" role="img" aria-labelledby="title desc">
  <title id="title">Synthetic DOA coral evidence mock</title>
  <desc id="desc">A clearly labeled synthetic photograph-style illustration of a pale coral frag in a shipping cup.</desc>
  <defs>
    <radialGradient id="water" cx="38%" cy="28%" r="85%">
      <stop offset="0" stop-color="#245a62"/>
      <stop offset=".48" stop-color="#0a2834"/>
      <stop offset="1" stop-color="#041019"/>
    </radialGradient>
    <radialGradient id="cup" cx="44%" cy="36%" r="70%">
      <stop offset="0" stop-color="#d5eee8" stop-opacity=".28"/>
      <stop offset=".72" stop-color="#4da69d" stop-opacity=".1"/>
      <stop offset="1" stop-color="#061b24" stop-opacity=".45"/>
    </radialGradient>
    <filter id="blur"><feGaussianBlur stdDeviation="18"/></filter>
    <filter id="soft"><feGaussianBlur stdDeviation="4"/></filter>
    <linearGradient id="label" x2="1">
      <stop stop-color="#ff7a4d"/>
      <stop offset="1" stop-color="#e8562b"/>
    </linearGradient>
  </defs>
  <rect width="960" height="600" fill="url(#water)"/>
  <g opacity=".28" filter="url(#blur)">
    <circle cx="130" cy="90" r="95" fill="#4fe3cf"/>
    <circle cx="820" cy="500" r="150" fill="#e8562b"/>
  </g>
  <g opacity=".25" fill="none" stroke="#a4e7df" stroke-width="3">
    <path d="M-20 120C160 35 275 190 450 110S735 35 990 145"/>
    <path d="M-35 154C155 74 292 222 465 146S755 76 980 172"/>
  </g>
  <ellipse cx="474" cy="334" rx="300" ry="212" fill="url(#cup)" stroke="#8bd8d0" stroke-opacity=".42" stroke-width="5"/>
  <ellipse cx="474" cy="194" rx="224" ry="64" fill="#071922" stroke="#a7e8df" stroke-opacity=".38" stroke-width="5"/>
  <ellipse cx="474" cy="202" rx="200" ry="46" fill="#5ba9a1" opacity=".22"/>
  <g transform="translate(474 342)">
    <ellipse cy="118" rx="112" ry="28" fill="#06131a" opacity=".65"/>
    <path d="M-70 108L-52-28L54-28L78 108Z" fill="#c5ddd3" opacity=".64" stroke="#e4f1ed" stroke-opacity=".5"/>
    <g fill="#e5eee6" stroke="#b9d8ce" stroke-width="5">
      <path d="M-38-17C-100-54-117-108-85-135C-46-167-15-104-4-68C-2-128 27-173 64-151C97-131 76-77 42-45C91-66 139-53 142-15C144 23 90 38 40 19C64 65 53 111 15 119C-26 128-43 75-33 30C-67 66-119 70-134 34C-149-2-99-29-38-17Z"/>
      <circle cx="-55" cy="-62" r="19" fill="#f2f5ef"/>
      <circle cx="38" cy="-91" r="16" fill="#f2f5ef"/>
      <circle cx="83" cy="-16" r="20" fill="#eef4ed"/>
      <circle cx="6" cy="45" r="17" fill="#f3f6f0"/>
    </g>
  </g>
  <g fill="#e8ffff" opacity=".45">
    <circle cx="304" cy="286" r="8"/><circle cx="657" cy="240" r="5"/><circle cx="702" cy="362" r="9"/>
    <circle cx="245" cy="388" r="4"/><circle cx="616" cy="432" r="6"/><circle cx="352" cy="180" r="5"/>
  </g>
  <g transform="translate(36 34)">
    <rect width="330" height="54" rx="8" fill="#071820" fill-opacity=".88" stroke="#ff7a4d" stroke-opacity=".7"/>
    <circle cx="26" cy="27" r="7" fill="#ff7a4d"/>
    <text x="45" y="34" fill="#ffd8ca" font-family="ui-monospace,monospace" font-size="19" letter-spacing="2">SYNTHETIC DOA EVIDENCE</text>
  </g>
  <g transform="translate(658 522)">
    <rect width="266" height="42" rx="6" fill="url(#label)"/>
    <text x="133" y="27" text-anchor="middle" fill="#07131a" font-family="ui-monospace,monospace" font-weight="700" font-size="15" letter-spacing="1.5">MOCK PHOTO · DEMO ONLY</text>
  </g>
</svg>
